HIERARCHY
ROOT Hips
{
 OFFSET 0.000000 0.000000 0.000000
 CHANNELS 6 Xposition Yposition Zposition Yrotation Xrotation Zrotation
 JOINT Chest
 {
  OFFSET 0.000000 9.585900 0.002600
  CHANNELS 3 Yrotation Xrotation Zrotation
  JOINT Chest2
  {
   OFFSET 0.000000 9.601200 -0.005300
   CHANNELS 3 Yrotation Xrotation Zrotation
   JOINT Chest3
   {
    OFFSET 0.000000 9.561800 0.000000
    CHANNELS 3 Yrotation Xrotation Zrotation
    JOINT Chest4
    {
     OFFSET 0.000000 9.552100 0.000000
     CHANNELS 3 Yrotation Xrotation Zrotation
     JOINT Neck
     {
      OFFSET 0.000000 14.453000 0.000000
      CHANNELS 3 Yrotation Xrotation Zrotation
      JOINT Head
      {
       OFFSET 0.000000 8.936500 -0.011300
       CHANNELS 3 Yrotation Xrotation Zrotation
       End Site
       {
        OFFSET 0.000000 17.073600 -0.006000
       }
      }
     }
     JOINT RightCollar
     {
      OFFSET -2.921100 9.558500 0.000000
      CHANNELS 3 Yrotation Xrotation Zrotation
      JOINT RightShoulder
      {
       OFFSET -13.519700 0.000000 0.000000
       CHANNELS 3 Yrotation Xrotation Zrotation
       JOINT RightElbow
       {
        OFFSET 0.000000 -29.696600 0.000000
        CHANNELS 3 Yrotation Xrotation Zrotation
        JOINT RightWrist
        {
         OFFSET 0.000000 -24.004700 0.000000
         CHANNELS 3 Yrotation Xrotation Zrotation
         End Site
         {
          OFFSET 0.000000 -17.728500 0.000000
         }
        }
       }
      }
     }
     JOINT LeftCollar
     {
      OFFSET 2.921100 9.558500 0.000000
      CHANNELS 3 Yrotation Xrotation Zrotation
      JOINT LeftShoulder
      {
       OFFSET 13.519700 0.000000 0.000000
       CHANNELS 3 Yrotation Xrotation Zrotation
       JOINT LeftElbow
       {
        OFFSET 0.000000 -29.696600 0.000000
        CHANNELS 3 Yrotation Xrotation Zrotation
        JOINT LeftWrist
        {
         OFFSET 0.000000 -24.004700 0.000000
         CHANNELS 3 Yrotation Xrotation Zrotation
         End Site
         {
          OFFSET 0.000000 -17.728500 0.000000
         }
        }
       }
      }
     }
    }
   }
  }
 }
 JOINT RightHip
 {
  OFFSET -7.771700 -0.012900 -0.001300
  CHANNELS 3 Yrotation Xrotation Zrotation
  JOINT RightKnee
  {
   OFFSET 0.000000 -40.869800 0.001200
   CHANNELS 3 Yrotation Xrotation Zrotation
   JOINT RightAnkle
   {
    OFFSET 0.000000 -39.717900 0.002100
    CHANNELS 3 Yrotation Xrotation Zrotation
    JOINT RightToe
    {
     OFFSET 0.000000 -4.965400 11.033500
     CHANNELS 3 Yrotation Xrotation Zrotation
     End Site
     {
      OFFSET 0.000000 -1.423100 5.872300
     }
    }
   }
  }
 }
 JOINT LeftHip
 {
  OFFSET 7.771700 -0.012900 -0.001300
  CHANNELS 3 Yrotation Xrotation Zrotation
  JOINT LeftKnee
  {
   OFFSET 0.000000 -40.869800 0.001200
   CHANNELS 3 Yrotation Xrotation Zrotation
   JOINT LeftAnkle
   {
    OFFSET 0.000000 -39.717900 0.002100
    CHANNELS 3 Yrotation Xrotation Zrotation
    JOINT LeftToe
    {
     OFFSET 0.000000 -4.965400 11.033500
     CHANNELS 3 Yrotation Xrotation Zrotation
     End Site
     {
      OFFSET 0.000000 -1.423100 5.872300
     }
    }
   }
  }
 }
}
MOTION
Frames: 11
Frame Time: 0.008333
12.273530 54.020245 41.405253 170.901519 -39.805669 -4.455068 4.201254 21.447736 2.787567 0.512821 2.964702 0.277363 0.854731 4.872909 0.506167 3.510698 18.260098 2.216470 0.303068 14.897675 0.288127 0.455470 -8.147928 0.456795 -5.587208 -1.924423 -2.264490 -5.217899 -0.319437 4.663289 -140.196671 -81.499536 155.541756 -0.380066 -3.163567 -0.296465 -1.749141 0.349649 -0.004312 7.098626 -0.868211 2.514495 94.755024 -72.545286 -122.596032 -5.297669 -6.570616 20.642774 -4.769894 -43.692633 8.469315 -149.892373 86.936756 -148.570656 -4.010014 -4.128775 3.359392 -0.067894 1.684477 0.188663 -0.396295 -37.920630 8.611541 69.819686 82.358513 60.292358 -5.160385 -10.311232 8.924717 0.043317 -0.009488 0.067679
12.272843 54.034431 41.443800 170.911894 -39.765473 -4.488650 4.210733 21.488056 2.863768 0.519479 2.991313 0.301189 0.848284 4.821295 0.476067 3.512581 18.245743 2.222162 0.271384 14.856687 0.265029 0.405326 -8.225182 0.457922 -5.601365 -1.913045 -2.259369 -5.236505 -0.287311 4.659180 -139.937259 -81.482916 155.307693 -0.343288 -3.100527 -0.300754 -1.747285 0.330516 -0.028662 7.158709 -0.824406 2.531479 95.154096 -72.535234 -123.010487 -5.299063 -6.611430 20.646481 -4.512221 -43.079742 8.010419 -169.140606 87.710053 -167.441606 -4.467093 -5.506842 3.110260 -0.105573 2.202419 0.143005 -0.405484 -37.977159 8.656686 69.597874 82.325312 60.085956 -5.208157 -10.223107 8.913682 0.088929 -0.045420 0.071568
12.274474 54.051132 41.477541 170.902310 -39.756317 -4.489861 4.223609 21.504107 2.887365 0.523823 3.012828 0.323843 0.852945 4.827699 0.480907 3.505985 18.223185 2.208439 0.288165 14.860173 0.318924 0.334365 -8.311736 0.408856 -5.601615 -1.864963 -2.230324 -5.238903 -0.268838 4.649465 -139.317961 -81.445888 154.704719 -0.315187 -3.016251 -0.294221 -1.656696 0.398430 -0.003939 7.138484 -0.852786 2.507574 95.516966 -72.509353 -123.391836 -5.300254 -6.648889 20.644739 -4.174264 -42.527970 7.539159 158.320282 87.981760 160.416439 -4.943001 -6.674124 2.637834 -0.114289 2.486960 0.289799 -0.401191 -37.987732 8.669658 69.403870 82.297704 59.896752 -5.216118 -10.176792 8.904922 0.095551 -0.059778 0.069218
12.279576 54.062620 41.514229 170.839279 -39.720488 -4.439536 4.269559 21.508889 2.912020 0.528313 3.011534 0.327381 0.857421 4.836484 0.484937 3.557537 18.279144 2.274774 0.216020 14.782611 0.266110 0.284420 -8.371979 0.398267 -5.648735 -1.903520 -2.272224 -5.230084 -0.236263 4.657034 -138.145165 -81.374806 153.543497 -0.296216 -2.907061 -0.262203 -1.656121 0.367992 -0.043717 7.156393 -0.862726 2.494002 95.855435 -72.471554 -123.753275 -5.273799 -6.643232 20.607260 -3.704346 -42.125923 7.091943 131.015130 87.626401 133.520089 -5.396119 -7.650456 2.120037 -0.097913 2.602833 0.489679 -0.344912 -38.027225 8.660095 69.203279 82.271487 59.702408 -5.208566 -10.137771 8.898027 0.079913 -0.066892 0.064958
12.281936 54.070950 41.547745 170.869600 -39.683619 -4.382709 4.214544 21.515224 2.863632 0.537337 3.005360 0.324036 0.867747 4.854325 0.499550 3.578051 18.308247 2.302279 0.168799 14.732244 0.233636 0.245766 -8.410861 0.396950 -5.685587 -1.944026 -2.307499 -5.211314 -0.162378 4.681939 -136.314578 -81.256655 151.739517 -0.290205 -2.775672 -0.198709 -1.649395 0.361365 -0.052982 7.195548 -0.863823 2.484053 96.169465 -72.427995 -124.095068 -5.285925 -6.681681 20.609103 -3.197841 -41.834228 6.633183 117.772787 87.083195 120.644292 -5.753926 -8.507214 1.686051 -0.081540 2.594260 0.660904 -0.303836 -38.062899 8.556104 68.757002 82.182054 59.285923 -5.261638 -10.028705 8.864146 0.104247 -0.085004 0.067466
12.294275 54.072361 41.585408 170.795574 -39.619735 -4.277667 4.259972 21.482317 2.846434 0.550635 3.009774 0.327127 0.868366 4.862862 0.502692 3.551739 18.295497 2.281502 0.148522 14.711879 0.219215 0.227084 -8.418118 0.410493 -5.689462 -1.933908 -2.314913 -5.213924 -0.087029 4.709318 -133.846637 -81.084556 149.334383 -0.302960 -2.640336 -0.101596 -1.612178 0.400637 -0.017873 7.242844 -0.863560 2.466549 96.465648 -72.385205 -124.424974 -5.295821 -6.712370 20.608018 -2.715772 -41.774229 6.377639 112.979244 86.687862 116.143855 -6.050236 -9.006663 1.273821 0.017937 2.349907 0.828111 -0.166480 -38.126706 8.441447 68.478585 82.113075 59.061348 -5.261010 -9.998492 8.850100 0.081203 -0.071697 0.048290
12.312483 54.067609 41.624879 170.754940 -39.528984 -4.196380 4.285945 21.421220 2.832918 0.583302 3.029028 0.344499 0.858825 4.860457 0.494868 3.554209 18.318847 2.308154 0.136475 14.712538 0.227080 0.170571 -8.469215 0.378878 -5.674365 -1.863451 -2.324386 -5.298550 -0.111792 4.716170 -130.913486 -80.853449 146.496208 -0.330186 -2.512982 0.025714 -1.621686 0.393696 -0.008927 7.291834 -0.858072 2.443770 96.765237 -72.346652 -124.753652 -5.289733 -6.721990 20.591853 -2.450980 -41.851411 6.287128 112.439919 86.517651 115.758022 -6.186372 -9.250783 0.917702 0.135043 1.961071 0.945888 -0.081493 -38.220941 8.349114 68.295490 82.049739 58.914576 -5.262815 -9.966525 8.829268 0.075674 -0.061804 0.038363
12.336318 54.062909 41.658729 170.763024 -39.463101 -4.156204 4.312739 21.389779 2.847697 0.600724 3.043443 0.348956 0.833045 4.849686 0.485421 3.539697 18.323533 2.316561 0.151246 14.727731 0.239230 0.128679 -8.492846 0.364309 -5.647592 -1.813004 -2.327835 -5.375446 -0.086062 4.733072 -127.778567 -80.563429 143.468941 -0.369413 -2.396902 0.172687 -1.611853 0.406768 0.022661 7.330181 -0.846681 2.421899 97.076786 -72.314914 -125.080077 -5.282972 -6.732305 20.583734 -2.448490 -41.961560 6.337180 114.793380 86.567565 118.118148 -6.088864 -9.369926 0.690999 0.195492 1.559913 0.930850 -0.051560 -38.290665 8.285572 68.167953 81.997127 58.810725 -5.251804 -9.962735 8.813476 0.057585 -0.031122 0.025981
12.357365 54.058668 41.684808 170.825705 -39.420379 -4.127046 4.390200 21.438690 2.915895 0.538965 3.007006 0.313334 0.762739 4.809793 0.449186 3.553144 18.337560 2.336219 0.178176 14.748659 0.254188 0.103672 -8.496565 0.356420 -5.615355 -1.775922 -2.324014 -5.437884 -0.035381 4.750176 -124.724588 -80.222203 140.517105 -0.407923 -2.285049 0.318542 -1.589756 0.424140 0.061375 7.353003 -0.831792 2.406989 97.382938 -72.289173 -125.391864 -5.279226 -6.751120 20.591441 -2.637923 -42.075637 6.433076 119.415810 86.752822 122.628499 -5.813511 -9.443472 0.611672 0.186659 1.219784 0.786505 -0.020733 -38.337675 8.154376 68.119528 81.933777 58.806338 -5.215218 -9.975123 8.812707 0.005709 0.002129 -0.003246
12.372047 54.055815 41.701754 170.965062 -39.399944 -4.116637 4.368152 21.497278 2.919858 0.511804 2.991615 0.303723 0.751973 4.807143 0.450211 3.589772 18.369557 2.404353 0.107802 14.715763 0.213453 0.055743 -8.523905 0.341917 -5.667809 -1.806697 -2.365417 -5.489977 0.015349 4.761522 -122.017943 -79.857672 137.897483 -0.425891 -2.169034 0.432261 -1.658733 0.374357 0.039404 7.361698 -0.820101 2.404600 97.660883 -72.262330 -125.670275 -5.275777 -6.778805 20.613319 -2.934806 -42.204255 6.518828 126.403146 86.973509 129.458692 -5.429547 -9.473436 0.514466 0.106840 0.931595 0.688656 -0.000680 -38.372954 7.932522 68.259164 81.833934 59.019616 -5.157815 -9.967425 8.801318 -0.068442 0.012965 -0.036058
12.383740 54.057527 41.707157 171.151530 -39.422966 -4.135767 4.287082 21.585779 2.908542 0.508263 2.991247 0.306810 0.812105 4.845692 0.496682 3.512673 18.344043 2.398081 0.078104 14.711901 0.192882 0.056895 -8.493195 0.330513 -5.689980 -1.812476 -2.386601 -5.526480 0.057642 4.764459 -119.827487 -79.519163 135.771449 -0.425411 -2.053283 0.499488 -1.699904 0.345396 0.025243 7.357692 -0.822787 2.415977 97.787165 -72.215229 -125.819849 -5.297521 -6.833194 20.672708 -3.214202 -42.277652 6.546058 134.549038 87.144162 137.459994 -5.074073 -9.485303 0.603370 0.033647 0.688551 0.478160 -0.045889 -38.355310 7.767993 68.347948 81.771118 59.142215 -5.149401 -9.948717 8.789324 -0.093454 0.014748 -0.047844
